<!DOCTYPE svg PUBLIC "-//W3C//DTD SVG 1.1//EN" "http://www.w3.org/Graphics/SVG/1.1/DTD/svg11.dtd">
<!-- Uploaded to: SVG Find, www.svgrepo.com, Transformed by: SVG Find Mixer Tools -->
<svg width="800px" height="800px" version="1.1" viewBox="144 144 512 512" xmlns="http://www.w3.org/2000/svg" fill="#0000ff" stroke="#0000ff">
<g id="SVGRepo_bgCarrier" stroke-width="0"/>
<g id="SVGRepo_tracerCarrier" stroke-linecap="round" stroke-linejoin="round"/>
<g id="SVGRepo_iconCarrier"> <defs> <clipPath id="b"> <path d="m500 544h72v107.9h-72z"/> </clipPath> <clipPath id="a"> <path d="m210 148.09h342v299.91h-342z"/> </clipPath> </defs> <path d="m514.3 536.17h74.375v-17.461h-52.488z"/> <g clip-path="url(#b)"> <path d="m500.97 546.8v105.1h70.258v-107.48h-67.281z"/> </g> <path d="m488.91 416.23c0.59375-5.707-1.1094-11.305-4.793-15.766-4.3555-5.2695-10.727-8.0078-17.152-8.0078-4.8945 0-9.8164 1.5859-13.902 4.8477-4.5703 3.6445-7.4141 8.8164-8.0117 14.555-0.59375 5.707 1.1094 11.305 4.793 15.762 7.668 9.2852 21.602 10.703 31.055 3.1641 4.5703-3.6445 7.4141-8.8125 8.0117-14.555z"/> <path d="m436.84 411.01c0.82812-7.9609 4.7578-15.121 11.074-20.16 11.379-9.0781 27.504-8.668 38.387 0.20312 52.801-53.699 77.598-128.62 67.109-202.47l-328.67 262.17c71.375 25.238 151.06 16.809 215.38-22.883-2.7383-5.1406-3.8945-10.957-3.2812-16.863z"/> <g clip-path="url(#a)"> <path d="m544.53 172.29c-4.2773-1.6289-8.9531-0.91016-12.508 1.9258l-20.727 16.535c-37-5.1641-79.781-10.594-121.18-15.848-40.559-5.1484-82.43-10.465-118.87-15.527-0.32031-2.3398-1.2734-4.5586-2.8242-6.4375-2.6328-3.1953-6.4883-4.8477-10.371-4.8477-2.9609 0-5.9375 0.96094-8.4141 2.9336-2.7539 2.1953-4.4688 5.3125-4.8281 8.7695-0.35547 3.4336 0.66797 6.8047 2.8867 9.4922 1.5078 1.8242 3.418 3.1367 5.5039 3.9336-2.3906 35.367-5.3398 76.277-8.1992 115.93-2.9922 41.492-6.0781 84.348-8.5273 120.82l-21.812 17.398c-3.4648 2.7656-5.1406 7-4.4766 11.328 0.55469 3.6133 2.6523 6.6641 5.7344 8.5312l335.77-267.83c-1.2227-3.2344-3.7656-5.8164-7.1562-7.1016zm-299.31 230.7c2.3594-34.746 5.2305-74.586 8.0156-113.24 2.6055-36.133 5.2812-73.297 7.5469-106.38 8.1016 22.938 17.348 48.801 26.359 74.004 10.816 30.25 21.977 61.465 31.074 87.391zm79.836-63.684c-8.9258-25.398-19.688-55.504-30.133-84.719-10.172-28.445-20.645-57.738-29.422-82.691 0.11719-0.078125 0.23047-0.16797 0.34766-0.25 23.906 13.961 52.164 29.965 79.547 45.469 26.582 15.055 53.984 30.574 77.406 44.227zm104.66-83.488c-24.059-14.059-52.602-30.227-80.262-45.887-24.797-14.043-50.305-28.488-72.633-41.449 34.859 4.7891 74.133 9.7734 112.25 14.613 38.512 4.8867 78.211 9.9258 113.32 14.762z"/> </g> <path d="m305.98 233.06 55.219 66.848 13.863-11.055-55.219-66.852z"/> <path d="m589.93 462.96c-0.089843-0.64062-0.49609-2.2148-2.3438-2.9844l-91.379-38.031c-1.6562 5.9922-5.1523 11.312-10.152 15.297-5.1016 4.0703-11.156 6.2109-17.266 6.5625l19.062 95.602c0.375 1.8789 1.8555 2.6094 2.4727 2.8359 0.64063 0.23438 2.3125 0.64453 3.9062-0.625l94.309-75.223c1.5195-1.2109 1.4766-2.8047 1.3906-3.4336z"/> <path d="m571.23 510.45v-19.691l-24.684 19.691z"/> </g>
</svg>